<?xml version="1.0" standalone="no"?>
<svg xmlns:xlink="http://www.w3.org/1999/xlink" id="wave" style="transform:rotate(0deg); transition: 0.3s" viewBox="0 0 1440 310" version="1.1" xmlns="http://www.w3.org/2000/svg"><defs><linearGradient id="sw-gradient-0" x1="0" x2="0" y1="1" y2="0"><stop stop-color="rgba(9, 18, 23, 1)" offset="0%"/><stop stop-color="rgba(9, 18, 23, 1)" offset="100%"/></linearGradient></defs><path style="transform:translate(0, 0px); opacity:1" fill="url(#sw-gradient-0)" d="M0,93L26.7,108.5C53.3,124,107,155,160,149.8C213.3,145,267,103,320,72.3C373.3,41,427,21,480,36.2C533.3,52,587,103,640,134.3C693.3,165,747,176,800,196.3C853.3,217,907,248,960,227.3C1013.3,207,1067,134,1120,118.8C1173.3,103,1227,145,1280,134.3C1333.3,124,1387,62,1440,62C1493.3,62,1547,124,1600,129.2C1653.3,134,1707,83,1760,98.2C1813.3,114,1867,196,1920,201.5C1973.3,207,2027,134,2080,98.2C2133.3,62,2187,62,2240,62C2293.3,62,2347,62,2400,93C2453.3,124,2507,186,2560,196.3C2613.3,207,2667,165,2720,149.8C2773.3,134,2827,145,2880,134.3C2933.3,124,2987,93,3040,77.5C3093.3,62,3147,62,3200,77.5C3253.3,93,3307,124,3360,149.8C3413.3,176,3467,196,3520,170.5C3573.3,145,3627,72,3680,67.2C3733.3,62,3787,124,3813,155L3840,186L3840,310L3813.3,310C3786.7,310,3733,310,3680,310C3626.7,310,3573,310,3520,310C3466.7,310,3413,310,3360,310C3306.7,310,3253,310,3200,310C3146.7,310,3093,310,3040,310C2986.7,310,2933,310,2880,310C2826.7,310,2773,310,2720,310C2666.7,310,2613,310,2560,310C2506.7,310,2453,310,2400,310C2346.7,310,2293,310,2240,310C2186.7,310,2133,310,2080,310C2026.7,310,1973,310,1920,310C1866.7,310,1813,310,1760,310C1706.7,310,1653,310,1600,310C1546.7,310,1493,310,1440,310C1386.7,310,1333,310,1280,310C1226.7,310,1173,310,1120,310C1066.7,310,1013,310,960,310C906.7,310,853,310,800,310C746.7,310,693,310,640,310C586.7,310,533,310,480,310C426.7,310,373,310,320,310C266.7,310,213,310,160,310C106.7,310,53,310,27,310L0,310Z"/></svg>